<mxfile host="65bd71144e">
    <diagram id="XqPTSDgs0iy0onwgXd0V" name="第 1 页">
        <mxGraphModel dx="938" dy="600" grid="1" gridSize="10" guides="1" tooltips="1" connect="1" arrows="1" fold="1" page="1" pageScale="1" pageWidth="827" pageHeight="1169" math="0" shadow="0">
            <root>
                <mxCell id="0"/>
                <mxCell id="1" parent="0"/>
                <mxCell id="2" value="resource&lt;br&gt;+ save&lt;br&gt;+ search(rpc)" style="rounded=0;whiteSpace=wrap;html=1;" vertex="1" parent="1">
                    <mxGeometry x="540" y="180" width="220" height="70" as="geometry"/>
                </mxCell>
                <mxCell id="5" value="sync" style="edgeStyle=none;html=1;exitX=1;exitY=0.5;exitDx=0;exitDy=0;entryX=0;entryY=0.5;entryDx=0;entryDy=0;" edge="1" parent="1" source="4" target="2">
                    <mxGeometry relative="1" as="geometry"/>
                </mxCell>
                <mxCell id="4" value="secret&lt;br&gt;云商凭证管理&lt;br&gt;sync: 资源拉去 --&amp;gt; 转化 ---&amp;gt; Save()" style="rounded=0;whiteSpace=wrap;html=1;" vertex="1" parent="1">
                    <mxGeometry x="110" y="180" width="220" height="70" as="geometry"/>
                </mxCell>
                <mxCell id="6" value="&lt;h1&gt;怎么触发同步&lt;/h1&gt;&lt;p&gt;1. 收到触发(调用一下API）&lt;/p&gt;&lt;p&gt;2. 定时同步, 每隔一个小时: gocron&lt;/p&gt;" style="text;html=1;strokeColor=none;fillColor=none;spacing=5;spacingTop=-20;whiteSpace=wrap;overflow=hidden;rounded=0;" vertex="1" parent="1">
                    <mxGeometry x="30" y="310" width="240" height="120" as="geometry"/>
                </mxCell>
                <mxCell id="7" value="cmdb" style="rounded=0;whiteSpace=wrap;html=1;" vertex="1" parent="1">
                    <mxGeometry x="500" y="440" width="110" height="70" as="geometry"/>
                </mxCell>
                <mxCell id="8" value="cmdb" style="rounded=0;whiteSpace=wrap;html=1;" vertex="1" parent="1">
                    <mxGeometry x="510" y="450" width="110" height="70" as="geometry"/>
                </mxCell>
                <mxCell id="9" value="cmdb" style="rounded=0;whiteSpace=wrap;html=1;" vertex="1" parent="1">
                    <mxGeometry x="520" y="460" width="110" height="70" as="geometry"/>
                </mxCell>
                <mxCell id="11" value="&lt;h1&gt;程序有状态?&lt;/h1&gt;&lt;p&gt;每一个启动起来的cmdb实例 内部都运行一个corn&lt;/p&gt;" style="text;html=1;strokeColor=none;fillColor=none;spacing=5;spacingTop=-20;whiteSpace=wrap;overflow=hidden;rounded=0;" vertex="1" parent="1">
                    <mxGeometry x="637" y="410" width="190" height="120" as="geometry"/>
                </mxCell>
                <mxCell id="14" style="edgeStyle=none;html=1;exitX=0.5;exitY=1;exitDx=0;exitDy=0;entryX=0.473;entryY=-0.057;entryDx=0;entryDy=0;entryPerimeter=0;" edge="1" parent="1" source="12" target="4">
                    <mxGeometry relative="1" as="geometry"/>
                </mxCell>
                <mxCell id="12" value="k8s job(curl)/ crontab" style="rounded=0;whiteSpace=wrap;html=1;" vertex="1" parent="1">
                    <mxGeometry x="150" y="30" width="120" height="60" as="geometry"/>
                </mxCell>
                <mxCell id="15" value="&lt;h1&gt;关于同步API与Stream API的设计&lt;/h1&gt;&lt;p&gt;&lt;span style=&quot;text-align: center;&quot;&gt;&amp;nbsp;sync resource: 资源拉去 --&amp;gt; 转化 ---&amp;gt; Save()&amp;nbsp; &amp;nbsp; &amp;nbsp;:&amp;nbsp; 5分钟后才知道结果&lt;/span&gt;&lt;br&gt;&lt;/p&gt;&lt;p&gt;&lt;span style=&quot;text-align: center;&quot;&gt;stream resoruce:&amp;nbsp; 拉去一个 --&amp;gt; 转化1个 --&amp;gt; save() ---&amp;gt; xxx同步成功: 一个处理一个反馈 stream API 设计&lt;/span&gt;&lt;/p&gt;&lt;p&gt;&lt;span style=&quot;text-align: center;&quot;&gt;&lt;br&gt;&lt;/span&gt;&lt;/p&gt;&lt;p&gt;&lt;span style=&quot;text-align: center;&quot;&gt;&lt;br&gt;&lt;/span&gt;&lt;/p&gt;" style="text;html=1;strokeColor=none;fillColor=none;spacing=5;spacingTop=-20;whiteSpace=wrap;overflow=hidden;rounded=0;" vertex="1" parent="1">
                    <mxGeometry x="50" y="580" width="400" height="260" as="geometry"/>
                </mxCell>
            </root>
        </mxGraphModel>
    </diagram>
</mxfile>